<svg xmlns="http://www.w3.org/2000/svg" version="1.1" viewBox="0 0 30.87 23.56">
    <style>
#webdingens-logo #frame {
   fill: #2d2b2c;
   stroke: : #ae4f4d;
   stroke-width: 0.538615;
}
#webdingens-logo #front {
   fill: #7f4949;
}
#webdingens-logo #back {
   fill: #684040;
}
@supports (fill: oklch(0 0 0)) {
   #webdingens-logo #frame {
      fill: oklch(14% .07 32.84);
      stroke: oklch(34% .16 29.71);
   }
   #webdingens-logo #front {
      fill: oklch(34% .16 29.71);
   }
   #webdingens-logo #back {
      fill: oklch(27% .12 29.75);
   }
}
    </style>
    <g id="webdingens-logo" transform="translate(-8 -159.73)">
        <path id="frame" d="M67.51 94.58h30.33v23.02H67.51z" transform="translate(-59.24 65.42)"/>
        <g id="crow" transform="translate(13.54 156.13) scale(.0975)">
            <path id="front" d="M34.04 54.06c-.27.04-.34.14-.34.31 0 .56 2.67 2.28 6.08 3.92 7.58 3.64 11.17 4.96 20.1 7.38 2.53.68 3.96 1.3 3.05 1.3-.53.01-3.3-.45-10.05-1.68a313.69 313.69 0 0 1-15.61-3.18c-6.1-1.37-14.02-3-21.17-4.35-4.15-.79-11.6-1.84-14.33-2.03a34.8 34.8 0 0 1-3.4-.37c-1.47-.3-4.52-.41-9.79-.36-4.98.06-6.83.3-6.94.89-.1.58.28 1.03.97 1.13.33.05.8.34 1.05.63.23.3.78.72 1.22.94 1.12.57 2.34 1.08 2.65 1.1.14.02.5.16.79.32.29.16 1.17.37 1.95.45.79.1 1.62.33 1.86.54.23.2.96.46 1.61.57.66.1 1.37.32 1.6.49.82.63 1.48.86 2.64.94.65.04 1.3.17 1.45.28.49.37 6.14 1.45 9.66 1.84 1.24.14 2.79.37 3.44.52.66.14 2.8.4 4.76.57 1.97.16 4.35.45 5.3.62 1.55.3 1.63.34.78.45-.51.07-2.18-.03-3.7-.21-4.02-.49-7.77-.61-7.98-.27-.13.2-1.67.19-5.42-.08-6.28-.44-22.42-.46-26.04-.03-1.4.16-3.3.36-4.23.44-.94.08-2.22.2-2.85.27-1.54.17-6.2 1.18-6.52 1.42-.15.1-.79.36-1.42.56-1.1.34-1.15.4-1.01 1.23.08.48.03.94-.1 1.02-.14.09-.26.36-.26.61 0 .32-.43.61-1.45.96-1.78.6-1.93 1.22-.46 1.9.54.24 1.2.67 1.46.94.26.26.8.48 1.2.48.4 0 1.01.19 1.37.4.37.2.98.38 1.36.38.38 0 .84.18 1.01.39.6.7-.1 1.33-2.21 1.98-1.51.46-2.01.73-2.01 1.08 0 .53 1.2 1.43 1.58 1.2.14-.09.5 0 .79.17.4.26.71.27 1.33.04.73-.28.8-.26.8.27 0 .85.4 1.33.93 1.13.25-.1.63-.03.84.14.2.18 1.2.33 2.2.34 1.7.02 1.87-.03 2.71-.85 1.06-1.02 1.55-.93 2.02.35.34.94.66 1.1 1.35.66.26-.16.52-.13.79.1.46.4 6.41.45 7.21.06.35-.17.47-.12.47.2 0 .22.28.6.63.82.52.34.92.37 2.22.16.94-.15 2-.16 2.6-.02.57.13 3 .32 5.4.41 2.4.1 4.8.33 5.35.5.7.24 1.37.26 2.37.08a7.1 7.1 0 0 1 2.9.07c.84.18 1.85.24 2.26.13 1.45-.36 5.3-.7 10.8-.96 9.12-.43 12.13-.65 12.91-.98a5.86 5.86 0 0 1 1.86-.32c.6 0 2.45-.18 4.1-.4 1.65-.21 3.11-.32 3.25-.24.13.08.23.48.23.89 0 .72.81 2.04 1.51 2.48.2.12.35.38.35.58 0 .2.2.43.46.51.73.24 1.65 1.81 1.65 2.81 0 1.04.78 2.46 1.58 2.9.36.19.54.54.54 1.08 0 .9.57 2.13 1.5 3.24.33.41.62.9.62 1.1 0 .38.82.94 3.08 2.1a6.05 6.05 0 0 1 2.46 2.34c1.23 1.83 1.54 2.74 1.1 3.18-.5.5-.33.98.35.98.35 0 .83-.18 1.06-.41.38-.38.49-.37 1.23.16.9.64.89.53.24 3.74-.3 1.48-.29 1.54.65 3.31a7.1 7.1 0 0 0 2.43 2.86c2.55 1.83 2.81 2.15 2.68 3.25-.09.71.08 1.41.62 2.53.98 2.04 1.05 2.1 3.6 3.79 1.9 1.25 2.2 1.55 2.2 2.2 0 .53.16.81.53.93.77.25 1.92 2.63 1.71 3.57-.16.74.21 1.3.53.8.1-.15.6-.27 1.14-.27.54 0 1.42-.13 1.96-.28.7-.2 1.16-.19 1.54.02.41.22.63.2.94-.12.8-.8 2.3-.4 2.9.75.62 1.2.47 2.12-.54 3.34-.51.6-.93 1.25-.93 1.44 0 .18-.23.6-.53.93-1.08 1.26-.34 2.13 1.02 1.18a8.4 8.4 0 0 1 2.77-.65c1.2-.12 2.41-.3 2.72-.4.64-.2 1.5.57.86.79-2.15.71-2.97.94-3.4.94-.65 0-.67.23-.07.7.4.31.42.39.07.6-.22.14-.63.44-.92.68-.51.42-.5.43.43.3.53-.06 1.84-.55 2.91-1.07 4.22-2.04 9.66-3.68 10.48-3.16.56.35 3.1-.47 6.94-2.22 1.63-.75 1.31-.72 7.08-.65 3.74.05 4.3.11 4.3.48 0 .23-.22.48-.5.55a4 4 0 0 0-1.34 1.17c-.45.57-.96 1.03-1.13 1.03-.16 0-1.25.98-2.43 2.19a163.79 163.79 0 0 1-13.12 11.56c-1.23 1-2.9 2.44-3.7 3.19-.8.74-1.78 1.48-2.18 1.63-.4.14-.73.37-.73.5 0 .21-2.06 1.7-3.82 2.76-.48.29-1.45 1.16-2.14 1.93-.7.77-1.87 1.71-2.61 2.09-1.99 1-2.81 1.64-2.81 2.2 0 .27-.54 1-1.2 1.61-1.35 1.27-1.5 1.83-.48 1.83.6 0 .64.05.34.41-.18.23-1.15.94-2.15 1.59-2.01 1.3-2.38 1.93-.73 1.27 1.28-.52 1.48-.4.96.61-.28.54-.32.9-.14 1.23.2.36.07.8-.55 1.84-1.74 2.94-2.22 4.06-2.04 4.78.22.88.61.88 1.52 0 .4-.37.87-.63 1.05-.57.32.1-2.12 3.12-4.81 5.95a29.9 29.9 0 0 1-4.4 3.33c-3.17 2-12.89 7.14-15.28 8.08-.73.29-2.34 1.01-3.57 1.61-1.24.6-2.4 1.08-2.59 1.09-.18 0-2.09.88-4.23 1.96-2.98 1.5-4.27 2.31-5.44 3.44-.85.81-1.77 1.6-2.05 1.75-.6.32-.68 1.05-.12 1.05s.5.62-.1 1.16c-.53.48-.85 1.8-.55 2.28.12.2.52.2 1.34.02 1.41-.33 4.13-.37 4.31-.07.08.12-.99 1.2-2.36 2.38a35.71 35.71 0 0 0-4.07 4.22 79.79 79.79 0 0 1-1.99 2.51c-.47.53-.54 1.15-.15 1.39.15.09.27.66.27 1.27s.12 1.29.25 1.5c.26.41.86.3 3.32-.6a14.3 14.3 0 0 1 2.34-.57c1.56-.22 1.54-.19-.98 2.53-1.78 1.92-3.87 4.74-3.87 5.2 0 .14-.24.46-.53.72-.36.33-.52.78-.49 1.45.02.54-.04 1.12-.15 1.28-.2.32.84 1.9 1.24 1.9.13 0 .93-.62 1.78-1.39 1.42-1.28 6.46-4.26 6.93-4.1.11.04-.19.49-.66 1-2.37 2.52-5.47 6.1-6.35 7.3-1 1.4-2.27 4.46-1.97 4.76.1.1.55-.14 1.01-.53.47-.39.9-.65.96-.59.06.06-.19.72-.56 1.46-.38.73-.69 1.4-.69 1.47 0 .28 1.6.94 2.27.94.47 0 .74.17.83.53.08.3.24.53.36.53s1.07-1 2.1-2.23a16.76 16.76 0 0 1 3.58-3.3c2.16-1.38 2.37-1.6 5.15-5.74 3.86-5.75 3.83-5.71 5.76-6.72 1.89-.99 2.17-1.32 4.59-5.3 3.48-5.71 5.36-8.46 5.8-8.46 1.05 0-.7 3.37-5.48 10.59a158.77 158.77 0 0 0-6.75 10.7 132.6 132.6 0 0 1-3.66 5.86 36.57 36.57 0 0 0-3.8 6.78c-.65 1.5-.65 1.5-.14 2.15.28.36.5.73.5.84 0 .1-.42.66-.93 1.23-1.03 1.13-1.07 1.71-.13 1.6.36-.04.88.2 1.27.6.37.36.76.66.87.66.34 0 1.8-2.14 2.12-3.08.41-1.25.76-1.1.57.24-.39 2.66.04 3.66.87 2.04.31-.6.55-.78.87-.65.86.33.98.25 1.06-.67.1-.97.4-1.45.93-1.45.17 0 .35-.33.4-.73.1-.83.88-.99 1.79-.35.69.48.92.31 1.81-1.3.4-.73.89-1.5 1.07-1.72.32-.37.8-1.23 3.11-5.56.5-.94 2.34-3.92 4.08-6.61 1.74-2.7 3.73-5.82 4.43-6.95.7-1.13 1.37-2.05 1.49-2.05.47 0-.33 1.8-1.73 3.9a31.28 31.28 0 0 0-2.08 3.6c-.59 1.32-.79 2.06-1.5 5.6-.17.87-.9 3.3-1.61 5.4-.71 2.1-1.29 4.2-1.29 4.66 0 .47-.18 1.36-.4 1.98-.4 1.13-.55 5.04-.21 5.38.1.1.3.06.45-.09.15-.14.53-.27.85-.27.32 0 .76-.29 1-.66.25-.36.67-.66.95-.66.55 0 2.39-1.46 2.39-1.9 0-.4 1.6-1.82 1.88-1.66.13.08.23.39.23.68 0 .72.71.92 1.31.38.4-.35.62-.39 1.04-.17.8.43 1.03.36 1.41-.44.2-.4.61-.76.94-.81.33-.05.6-.17.6-.27s.38-.4.86-.66c.82-.46 1.95-2 3.85-5.28.49-.85 1.03-1.5 1.2-1.44.16.06.44.73.61 1.5.17.75.38 1.45.47 1.54.1.1.72-.04 1.41-.28a7.92 7.92 0 0 1 1.69-.45c.23 0 .57-.18.75-.4.2-.23.57-.33.92-.24.43.1.7-.02 1-.5.24-.34.79-.78 1.23-.97.9-.37 2.23-2.5 3.62-5.82 1.55-3.72 1.67-3.98 1.95-3.98.15 0 .28.1.29.2 0 .11.22.48.48.82l.47.62 1.84-.86c1-.48 1.99-1.1 2.19-1.37.2-.27.51-.44.7-.37.2.08.5-.03.67-.24.18-.21.47-.38.64-.38 1.26 0 5.97-9.8 5.97-12.42 0-.92.16-.97 1.52-.4.93.39.99.38 1.42-.19.36-.48.52-.53.83-.28.5.42 1.89.14 2.47-.5.25-.28.68-.5.97-.5.62 0 2.49-1.6 3.22-2.76a16.09 16.09 0 0 0 2.51-8.8c-.07-2.53-.53-8.46-.82-10.56-.37-2.71-.21-3.35 1.04-4.1.54-.33 1.26-.9 1.59-1.28.58-.67.6-.67 1-.15.31.4.38.89.26 1.98-.08.8-.17 2.65-.2 4.1-.05 2.5 0 2.74.78 4.24.46.87 1.28 2.14 1.84 2.81.55.67 1.18 1.48 1.4 1.79.21.3 1.23.87 2.25 1.26 2.66 1.01 5.88 2.8 9.66 5.32 3.49 2.32 4.2 2.84 5.56 4.04.66.58 1.51 1.3 1.9 1.6.92.68 1.2 2.01.66 3.08-.23.43-.96 1.45-1.63 2.27-1.77 2.17-2.83 4.7-2.83 6.68.01 2.26 1.6 5.94 2.56 5.94.52 0 .5-.3-.13-2.77-.56-2.22-.67-3.72-.29-3.96.13-.08.58.03 1 .25 1.05.56 1.34.5 2.25-.4.73-.74.79-.91.62-2-.17-1.15-.13-1.24.9-2.18a5.82 5.82 0 0 0 1.36-1.83l.3-.86.79.59c1.16.87 3.9 3.72 3.91 4.06.01.6 1.1 1.66 1.78 1.74.69.08 1.22.75.6.75-.37 0-1.58 1.22-1.58 1.59 0 .13-.24.37-.54.53-.85.46-2.08 2.35-2.53 3.9a6.23 6.23 0 0 0 .46 4.82c.76 1.25 1.11.7 1.05-1.57a6.46 6.46 0 0 1 1.52-4.7c.66-.77.94-.76 1.46.04.57.87 1.3 1.05 2.26.56.94-.49 1.35-1.15 1.35-2.19 0-.42.23-.94.53-1.2.3-.25.52-.7.52-1 0-.43.12-.5.68-.36.45.12.84.02 1.17-.28.44-.4.64-.41 1.5-.13.91.3 1.02.28 1.47-.27l.48-.6.85.65c.47.36 1.39 1.54 2.06 2.61 1.27 2.06 1.77 2.35 1.64.98-.12-1.35-1.39-3.36-3.42-5.4-2.04-2.05-2.2-2.58-.86-2.88.92-.2 1.89.37 2.63 1.57a4.6 4.6 0 0 0 1.47 1.36c1.07.58 1.77 1.5 1.57 2.04-.22.56.89 1.78 1.6 1.78.35 0 .7-.12.8-.27.08-.14.33-.26.54-.26.5 0 .5 1.45-.02 2.9-.63 1.8 0 2.21 1 .67.5-.8.7-.9 1.33-.77.43.1.9.02 1.13-.17.83-.69 1.29.93.69 2.43-.2.53-.19.83.08 1.2.33.45.39.43.84-.38.5-.85.98-1.08 1.28-.59.25.4.96.32 1.49-.16.25-.23.58-.35.73-.26.42.26 1.36 3 1.36 3.96 0 .97.56 1.92.98 1.66.43-.26.56-2 .27-3.69a7.98 7.98 0 0 0-1.42-3.26 13.74 13.74 0 0 1-1.16-1.92c0-.1-.98-1.09-2.2-2.2a17.24 17.24 0 0 1-2.8-3.16 7.79 7.79 0 0 0-1.82-2.08c-1.84-1.41-3.24-2.82-3.24-3.28 0-.52-1.04-1.05-2.9-1.49a6.8 6.8 0 0 1-2.1-.82 2.3 2.3 0 0 0-1.08-.5c-.26 0-.61-.18-.8-.4-.17-.21-.52-.4-.77-.4-.24 0-.67-.17-.96-.39-.28-.22-.99-.64-1.57-.93-.58-.3-1.5-.8-2.02-1.13l-2.65-1.58a165.5 165.5 0 0 1-7.68-4.88l-3.35-2.22-.13-1.77a17.7 17.7 0 0 0-.92-4.86c-.15-.38-.23-.75-.17-.8.06-.07.12-1.6.14-3.4a19 19 0 0 1 .26-3.72c.12-.23.35-1.25.5-2.25.17-1 .47-2.3.69-2.88a38.77 38.77 0 0 0 1.45-6.42c.26-1.8.3-1.93 2.05-4.83 1.5-2.5 3-4.7 3.8-5.56.34-.36 1.05-1.2 1.58-1.85a96 96 0 0 1 4.25-4.5 74.9 74.9 0 0 0 4.02-4.27 15.92 15.92 0 0 1 4.86-3.79c1.9-.91 8.17-2.7 10.57-3.02 7.44-.98 14.28-1.03 17.32-.12 1.87.55 3.84 1.63 4.9 2.68.48.47 1.53 1.4 2.32 2.04.8.65 3.64 3.4 6.31 6.09 2.67 2.69 5 4.9 5.16 4.9.17 0 .52-.33.77-.72.78-1.18.62-5.22-.29-7.8-.76-2.18-3.27-7.21-4.25-8.54-.33-.45-.7-.98-.8-1.2-.18-.32-.15-.34.14-.07.2.18.44.33.54.33.23 0-1-3.6-1.49-4.35-.57-.89-1.46-3.92-1.85-6.35-.51-3.16-4.89-10.8-8.35-14.55-3.9-4.22-10.63-8.92-15.32-10.71-1.24-.47-2.61-1.01-3.06-1.2a60.98 60.98 0 0 0-6.41-1.63 1.1 1.1 0 0 1-.52-.23l-12.2-.89-7.24-1.55-6.2-3.87-5.17-1.42-6.2-14.21-2.84-5.3-5.17-3.1a266.18 266.18 0 0 0-18.94-7.35c-.97-.45-2.38-1-3.14-1.24a87.5 87.5 0 0 1-4-1.42 59.93 59.93 0 0 0-8.87-2.65 60.66 60.66 0 0 1-7.94-2.24c-1.38-.48-5.85-1.96-9.92-3.3-4.08-1.32-8.9-2.95-10.72-3.62-21.08-7.7-28.5-9.99-34.36-10.57a8.85 8.85 0 0 0-1.54-.08zM136.2 191.65c.1.1-.37 1.3-1.03 2.7-1.25 2.62-1.4 3.08-.93 3.08.37 0 3.05-2.74 4.34-4.44 1.1-1.45 1.34-1.48 1.56-.19.07.44.32 1.74.54 2.9.34 1.67.39 3.14.26 7.27-.1 3.46-.06 5.53.14 6.24.16.58 1.04 2.19 1.95 3.57l1.65 2.5 1.85.65c2.9 1 10.72 5.11 10.72 5.64 0 .3-.31.23-1.33-.33a4.31 4.31 0 0 0-1.56-.51 5.52 5.52 0 0 1-1.86-.77c-.68-.42-1.53-.85-1.88-.96a34.2 34.2 0 0 1-4.75-2.26c-10.56-6.97-10.7-7.08-11.26-8.8-.25-.76-.68-1.82-.95-2.36a4.9 4.9 0 0 1-.49-1.8c0-.45-.37-1.6-.82-2.57-.77-1.65-.81-1.87-.64-3.76.2-2.17.48-2.93 1.05-2.93.53 0 2.24-1.13 2.25-1.49.02-.44 1-1.58 1.2-1.38zm22.76 30.75c.15.06.35.18.6.39.4.32 1.15.86 1.66 1.2a7.7 7.7 0 0 1 1.29 1.05c.85 1.03-2.18-.5-3.26-1.65-.7-.74-.74-1.17-.3-1zm-4.07 2.97c.08-.06.31.07.7.44.4.38 1.27.94 1.94 1.23.66.3 1.44.8 1.72 1.11.28.32 1.14.99 1.91 1.49s1.47 1.05 1.54 1.24c.07.18-.27.77-.76 1.3-1.28 1.4-1.47 1.35-2.05-.48a7.72 7.72 0 0 0-1.82-2.55c-.82-.81-1.87-1.89-2.34-2.39-.67-.7-.96-1.3-.84-1.39z"/>
            <path id="back" d="m178.5 116.88-12.21-.9-7.24-1.55-6.2-3.87-5.17-1.42-6.2-14.22-2.84-5.3-5.17-3.1-15.38-6.33-6.46-3.23-2.32-2.84 2.06-2.97 8.66-1.03 17.57.77s11.37 1.94 11.5 1.42c.13-.51-10.98-5.17-11.1-5.81-.14-.65.9-2.97 7.61-2.33 6.72.65 20.55 5.04 23.26 6.72 2.71 1.68 10.34 6.33 11.24 5.94.9-.38.9-1.8.9-1.8s5.05.9 7.76 2.84 6.46 5.68 6.46 6.72c0 1.03-1.81 2.06-1.81 2.06s1.16 1.17 1.55 2.33c.39 1.16-.39 3.75-1.68 5.17-1.3 1.42-6.98 4.9-8.53 7.5-1.55 2.58-4.78 8.65-5.16 10.07-.4 1.42-1.1 5.16-1.1 5.16z"/>
        </g>
    </g>
</svg>